<svg xmlns="http://www.w3.org/2000/svg" width="3173" height="719" viewBox="0 0 3173 719" version="1.1"><path d="M 257.328 165.750 C 292.983 165.896, 351.033 165.895, 386.328 165.750 C 421.622 165.604, 392.450 165.485, 321.500 165.485 C 250.550 165.485, 221.672 165.604, 257.328 165.750 M 310.250 224.750 C 335.962 224.898, 378.037 224.898, 403.750 224.750 C 429.462 224.601, 408.425 224.480, 357 224.480 C 305.575 224.480, 284.537 224.601, 310.250 224.750 M 1725.006 250.250 C 1725.009 250.938, 1727.371 254.520, 1730.256 258.211 C 1733.140 261.903, 1738.200 268.391, 1741.500 272.630 C 1744.800 276.870, 1749.975 283.565, 1753 287.509 C 1756.025 291.452, 1769.750 309.238, 1783.500 327.033 C 1797.250 344.828, 1808.978 360.021, 1809.562 360.797 C 1810.401 361.910, 1813.338 358.687, 1823.562 345.428 C 1830.678 336.200, 1836.836 328.097, 1837.246 327.421 C 1837.699 326.674, 1835.916 323.512, 1832.690 319.347 C 1829.775 315.581, 1816.447 298.212, 1803.073 280.750 L 1778.758 249 1751.879 249 C 1731.039 249, 1725.001 249.281, 1725.006 250.250 M 1430.430 430 C 1430.430 442.925, 1430.573 448.212, 1430.747 441.750 C 1430.921 435.288, 1430.921 424.712, 1430.747 418.250 C 1430.573 411.788, 1430.430 417.075, 1430.430 430 M 1480.407 453 C 1480.407 462.075, 1480.559 465.788, 1480.744 461.250 C 1480.929 456.712, 1480.929 449.288, 1480.744 444.750 C 1480.559 440.212, 1480.407 443.925, 1480.407 453" stroke="none" fill="#6ccb00" fill-rule="evenodd"/><path d="M 76.217 2.555 C 71.662 3.902, 65.137 6.411, 61.717 8.130 C 58.298 9.849, 52.350 13.280, 48.500 15.755 C 44.650 18.230, 37.073 24.585, 31.663 29.877 C 26.253 35.170, 19.440 43.100, 16.523 47.500 C 13.606 51.900, 9.824 58.292, 8.119 61.703 C 6.413 65.115, 3.889 71.803, 2.509 76.565 L -0 85.224 -0 359.500 L -0 633.776 2.509 642.435 C 3.889 647.197, 6.422 653.885, 8.137 657.297 C 9.852 660.708, 13.280 666.650, 15.755 670.500 C 18.230 674.350, 24.585 681.927, 29.877 687.337 C 35.170 692.747, 43.100 699.560, 47.500 702.477 C 51.900 705.394, 58.292 709.176, 61.703 710.881 C 65.115 712.587, 71.803 715.111, 76.565 716.491 L 85.224 719 1586.500 719 L 3087.776 719 3096.435 716.491 C 3101.197 715.111, 3107.885 712.578, 3111.297 710.863 C 3114.708 709.148, 3120.650 705.720, 3124.500 703.245 C 3128.350 700.770, 3135.927 694.415, 3141.337 689.123 C 3146.747 683.830, 3153.560 675.900, 3156.477 671.500 C 3159.394 667.100, 3163.138 660.784, 3164.796 657.465 C 3166.455 654.145, 3168.781 648.070, 3169.966 643.965 C 3171.151 639.859, 3172.543 635.719, 3173.060 634.764 C 3173.640 633.692, 3174 527.710, 3174 357.847 C 3174 206.498, 3173.694 82.972, 3173.321 83.346 C 3172.947 83.720, 3171.596 80.405, 3170.319 75.980 C 3169.041 71.555, 3166.597 65.137, 3164.888 61.717 C 3163.179 58.298, 3159.394 51.900, 3156.477 47.500 C 3153.560 43.100, 3146.747 35.170, 3141.337 29.877 C 3135.927 24.585, 3128.350 18.230, 3124.500 15.755 C 3120.650 13.280, 3114.708 9.852, 3111.297 8.137 C 3107.885 6.422, 3101.197 3.889, 3096.435 2.509 L 3087.776 0 1586.138 0.053 L 84.500 0.106 76.217 2.555 M 92.500 4.074 C 89.750 4.537, 83.542 6.064, 78.703 7.467 C 73.865 8.870, 67.115 11.422, 63.703 13.137 C 60.292 14.852, 54.350 18.284, 50.500 20.762 C 46.650 23.241, 39.747 28.921, 35.159 33.384 C 30.571 37.848, 24.410 45.111, 21.467 49.525 C 18.523 53.938, 14.526 60.913, 12.584 65.025 C 10.642 69.136, 7.803 77, 6.276 82.500 L 3.500 92.500 3.500 359.500 L 3.500 626.500 6.276 636.500 C 7.803 642, 10.642 649.864, 12.584 653.975 C 14.526 658.087, 18.523 665.062, 21.467 669.475 C 24.410 673.889, 30.571 681.152, 35.159 685.616 C 39.747 690.079, 46.765 695.840, 50.755 698.417 C 54.745 700.994, 61.270 704.643, 65.255 706.525 C 69.240 708.407, 77 711.197, 82.500 712.724 L 92.500 715.500 1586.500 715.500 L 3080.500 715.500 3090.500 712.724 C 3096 711.197, 3103.864 708.358, 3107.975 706.416 C 3112.087 704.474, 3119.062 700.477, 3123.475 697.533 C 3127.889 694.590, 3135.152 688.429, 3139.616 683.841 C 3144.079 679.253, 3149.840 672.235, 3152.417 668.245 C 3154.994 664.255, 3158.643 657.730, 3160.525 653.745 C 3162.407 649.760, 3165.197 642, 3166.724 636.500 L 3169.500 626.500 3169.500 359.500 L 3169.500 92.500 3166.724 82.500 C 3165.197 77, 3162.358 69.136, 3160.416 65.025 C 3158.474 60.913, 3154.477 53.938, 3151.533 49.525 C 3148.590 45.111, 3142.429 37.848, 3137.841 33.384 C 3133.253 28.921, 3126.235 23.160, 3122.245 20.583 C 3118.255 18.006, 3111.730 14.358, 3107.745 12.477 C 3103.760 10.597, 3096.225 7.807, 3091 6.279 L 3081.500 3.500 1589.500 3.366 C 768.900 3.292, 95.250 3.610, 92.500 4.074 M 2073 58.550 C 2059.525 60.390, 2043.213 62.665, 2036.750 63.606 C 2030.287 64.547, 2025.016 65.583, 2025.036 65.908 C 2025.055 66.234, 2030.223 70.325, 2036.519 75 C 2044.163 80.676, 2047.850 84.030, 2047.617 85.095 C 2047.425 85.973, 2019.195 123.464, 1984.884 168.409 C 1950.573 213.354, 1920.003 253.361, 1916.952 257.314 C 1913.901 261.266, 1897.476 282.864, 1880.452 305.309 C 1863.428 327.755, 1838.475 360.638, 1825 378.385 C 1811.525 396.131, 1796.576 415.792, 1791.780 422.075 C 1786.984 428.359, 1781.793 434.850, 1780.244 436.500 C 1778.695 438.150, 1771.609 447.150, 1764.499 456.500 C 1757.388 465.850, 1745.696 481.150, 1738.517 490.500 C 1731.337 499.850, 1721.619 512.675, 1716.919 519 C 1712.220 525.325, 1685.064 561.100, 1656.573 598.500 C 1628.081 635.900, 1604.317 667.063, 1603.763 667.750 C 1602.961 668.744, 1608.279 669, 1629.727 669 L 1656.699 669 1689.242 626.250 C 1707.140 602.737, 1726.412 577.425, 1732.068 570 C 1737.724 562.575, 1748.890 547.950, 1756.881 537.500 C 1764.873 527.050, 1787.181 497.718, 1806.456 472.319 C 1825.730 446.919, 1843.451 423.406, 1845.834 420.069 C 1848.218 416.731, 1850.544 414, 1851.002 414 C 1851.461 414, 1858.246 422.438, 1866.080 432.750 C 1873.915 443.063, 1887.674 461.175, 1896.656 473 C 1905.638 484.825, 1916.277 498.775, 1920.298 504 L 1927.609 513.500 1954.918 513.766 C 1978.255 513.994, 1982.147 513.825, 1981.678 512.603 C 1981.376 511.817, 1973.796 501.797, 1964.832 490.337 C 1955.869 478.877, 1948.004 468.825, 1947.355 468 C 1946.706 467.175, 1943.308 462.900, 1939.803 458.500 C 1936.299 454.100, 1924.470 439.025, 1913.516 425 C 1902.562 410.975, 1890.090 395.066, 1885.800 389.647 C 1881.510 384.228, 1878 379.224, 1878 378.526 C 1878 377.829, 1893.412 357.211, 1912.250 332.710 C 1931.088 308.208, 1952.575 280.242, 1960 270.563 C 1967.425 260.884, 1974.175 251.728, 1975 250.215 C 1975.825 248.702, 1980.759 241.847, 1985.964 234.982 C 1991.170 228.117, 2007.081 207.200, 2021.322 188.500 C 2035.563 169.800, 2054.029 145.544, 2062.357 134.599 C 2070.686 123.653, 2078.469 113.534, 2079.653 112.111 L 2081.805 109.525 2093.987 118.826 C 2100.687 123.942, 2106.829 128.381, 2107.635 128.690 C 2108.750 129.118, 2108.969 128.683, 2108.550 126.876 C 2108.246 125.569, 2106.235 111.450, 2104.081 95.500 C 2101.927 79.550, 2099.850 63.913, 2099.467 60.750 C 2099.083 57.587, 2098.484 55.046, 2098.135 55.103 C 2097.786 55.159, 2086.475 56.710, 2073 58.550 M 0.493 359.500 C 0.493 511.300, 0.609 573.251, 0.750 497.169 C 0.891 421.087, 0.891 296.887, 0.750 221.169 C 0.609 145.451, 0.493 207.700, 0.493 359.500 M 1451.629 165.770 L 1429.759 166.040 1430.349 316.770 C 1430.673 399.671, 1430.953 478.400, 1430.969 491.722 L 1431 515.945 1557.250 515.390 C 1626.688 515.084, 1683.950 514.704, 1684.500 514.546 C 1685.139 514.361, 1685.396 506.406, 1685.212 492.531 L 1684.923 470.805 1587.579 471.543 C 1534.039 471.949, 1488.044 472.330, 1485.367 472.390 L 1480.500 472.500 1480.500 416.123 C 1480.500 379.398, 1480.849 359.645, 1481.500 359.456 C 1482.050 359.297, 1520.975 358.905, 1568 358.586 C 1615.025 358.267, 1654.063 358.005, 1654.750 358.003 C 1655.710 358.001, 1656 353.109, 1656 336.887 L 1656 315.774 1568.253 316.137 L 1480.507 316.500 1480.340 263.324 C 1480.197 217.777, 1480.380 210.068, 1481.617 209.593 C 1482.412 209.288, 1513.311 208.922, 1550.281 208.780 C 1587.251 208.638, 1630.888 208.391, 1647.250 208.231 L 1677 207.942 1677 186.410 L 1677 164.878 1575.250 165.189 C 1519.287 165.360, 1463.658 165.621, 1451.629 165.770 M 193 339 L 193 512 325 512 L 457 512 457 482.500 L 457 453 360 453 L 263 453 263 406.500 L 263 360 350 360 L 437 360 437 330.500 L 437 301 349.988 301 L 262.976 301 263.238 262.750 L 263.500 224.500 356.750 224.245 L 450 223.990 450 194.995 L 450 166 321.500 166 L 193 166 193 339 M 2904.971 187.750 C 2904.955 188.162, 2904.968 201.213, 2904.999 216.750 L 2905.056 245 2889.778 245.135 C 2881.375 245.210, 2872.715 245.178, 2870.534 245.065 C 2868.353 244.951, 2865.081 245.137, 2863.263 245.478 L 2859.958 246.098 2860.229 265.624 L 2860.500 285.149 2882.750 285.040 L 2905 284.931 2905.084 346.216 C 2905.130 379.922, 2905.188 409.750, 2905.212 412.500 C 2905.236 415.250, 2905.632 424.931, 2906.092 434.013 C 2906.746 446.930, 2907.482 452.439, 2909.473 459.310 C 2910.873 464.141, 2913.420 470.885, 2915.134 474.297 C 2916.847 477.708, 2920.463 483.241, 2923.170 486.590 C 2925.876 489.940, 2930.967 494.793, 2934.484 497.375 C 2938.001 499.958, 2943.775 503.384, 2947.315 504.989 C 2950.856 506.594, 2957.295 508.858, 2961.626 510.020 C 2966.996 511.461, 2973.976 512.315, 2983.577 512.707 C 2992.514 513.071, 3000.729 512.833, 3006.077 512.054 C 3010.709 511.380, 3018.451 509.560, 3023.280 508.010 C 3028.109 506.460, 3035.121 503.374, 3038.862 501.151 C 3042.603 498.929, 3046.241 496.414, 3046.948 495.563 C 3048.027 494.263, 3047.066 491.361, 3040.955 477.467 C 3036.953 468.365, 3033.291 460.680, 3032.818 460.388 C 3032.346 460.096, 3030.598 461.002, 3028.935 462.401 C 3027.272 463.801, 3023.794 465.886, 3021.205 467.036 C 3018.617 468.185, 3013.800 469.765, 3010.500 470.548 C 3007.200 471.330, 3000.657 471.977, 2995.960 471.985 C 2991.263 471.993, 2984.743 471.303, 2981.470 470.450 C 2978.197 469.598, 2973.385 467.531, 2970.776 465.856 C 2968.167 464.182, 2964.512 460.717, 2962.653 458.156 C 2960.794 455.595, 2958.200 450.800, 2956.887 447.500 L 2954.500 441.500 2954.215 363.262 L 2953.931 285.024 2991.715 284.762 L 3029.500 284.500 3029.500 265 L 3029.500 245.500 2991.500 245 L 2953.500 244.500 2953.352 232 C 2953.271 225.125, 2953.159 212.188, 2953.102 203.250 L 2953 187 2929 187 C 2915.800 187, 2904.987 187.338, 2904.971 187.750 M 2821 243.674 C 2819.075 243.869, 2813.225 244.723, 2808 245.571 C 2802.775 246.420, 2794.450 248.464, 2789.500 250.114 C 2784.550 251.764, 2777.142 254.921, 2773.038 257.130 C 2768.934 259.339, 2762.759 263.431, 2759.317 266.224 C 2755.875 269.016, 2751.258 273.438, 2749.056 276.049 C 2746.854 278.660, 2744.028 282.530, 2742.776 284.648 L 2740.500 288.500 2740 267.500 L 2739.500 246.500 2716.208 246.231 L 2692.916 245.963 2693.208 345.231 C 2693.369 399.829, 2693.630 459.470, 2693.789 477.768 L 2694.078 511.035 2718.101 510.768 L 2742.124 510.500 2742.347 434.500 C 2742.550 365.272, 2742.730 357.837, 2744.366 351.057 C 2745.354 346.964, 2747.338 340.664, 2748.775 337.057 C 2750.211 333.451, 2752.860 327.974, 2754.661 324.887 C 2756.462 321.799, 2761.058 316.120, 2764.873 312.266 C 2768.689 308.413, 2774.500 303.626, 2777.786 301.630 C 2781.072 299.634, 2786.655 296.911, 2790.193 295.579 C 2793.730 294.248, 2800.041 292.453, 2804.216 291.590 C 2808.392 290.728, 2817.251 289.905, 2823.903 289.761 L 2835.999 289.500 2835.999 266.250 L 2836 243 2830.250 243.160 C 2827.088 243.248, 2822.925 243.479, 2821 243.674 M 2472.500 245.015 C 2468.650 245.424, 2461.693 246.537, 2457.040 247.488 C 2452.388 248.439, 2445.188 250.338, 2441.040 251.708 C 2436.893 253.078, 2429.572 256.159, 2424.772 258.554 C 2419.972 260.950, 2412.560 265.261, 2408.301 268.134 C 2404.042 271.008, 2396.552 277.216, 2391.656 281.930 C 2386.760 286.643, 2380.396 293.650, 2377.515 297.500 C 2374.634 301.350, 2370.147 308.218, 2367.544 312.761 C 2364.941 317.305, 2361.255 325.379, 2359.352 330.704 C 2357.449 336.029, 2355.237 343.496, 2354.438 347.297 C 2353.638 351.098, 2352.512 359.639, 2351.936 366.275 C 2351.191 374.854, 2351.206 382.122, 2351.989 391.421 C 2352.595 398.614, 2353.756 407.425, 2354.568 411 C 2355.381 414.575, 2357.211 421.100, 2358.635 425.500 C 2360.060 429.900, 2363.215 437.499, 2365.647 442.387 C 2368.080 447.275, 2372.417 454.686, 2375.285 458.857 C 2378.153 463.027, 2383.397 469.523, 2386.939 473.291 C 2390.480 477.060, 2397.561 483.288, 2402.675 487.132 C 2407.789 490.975, 2416.816 496.530, 2422.736 499.475 C 2428.656 502.420, 2436.875 505.964, 2441 507.351 C 2445.125 508.737, 2453.225 510.877, 2459 512.107 C 2467.679 513.954, 2472.795 514.352, 2488.500 514.402 C 2503.024 514.448, 2509.611 514.038, 2516.464 512.659 C 2521.394 511.667, 2529.719 509.483, 2534.964 507.805 C 2540.209 506.127, 2547.927 503.064, 2552.115 500.998 C 2556.303 498.933, 2561.928 495.981, 2564.615 494.439 C 2567.302 492.896, 2573.142 488.822, 2577.593 485.385 C 2582.045 481.948, 2588.710 475.870, 2592.406 471.879 C 2596.101 467.888, 2601.571 460.945, 2604.562 456.450 C 2607.553 451.955, 2611.768 444.503, 2613.929 439.889 C 2616.091 435.275, 2618.959 428.125, 2620.302 424 C 2621.646 419.875, 2623.577 411.775, 2624.595 406 C 2625.895 398.623, 2626.446 390.592, 2626.448 379 C 2626.450 367.112, 2625.929 359.705, 2624.583 352.500 C 2623.555 347, 2621.168 338.030, 2619.279 332.566 C 2617.389 327.102, 2614.479 319.902, 2612.811 316.566 C 2611.144 313.230, 2607.241 306.677, 2604.140 302.004 C 2601.038 297.332, 2594.225 289.202, 2589 283.938 C 2583.202 278.097, 2575.579 271.772, 2569.437 267.705 C 2563.902 264.041, 2556.027 259.509, 2551.937 257.636 C 2547.847 255.762, 2541.107 253.101, 2536.960 251.723 C 2532.812 250.345, 2525.837 248.490, 2521.460 247.600 C 2517.082 246.711, 2509 245.549, 2503.500 245.017 C 2498 244.486, 2490.350 244.101, 2486.500 244.162 C 2482.650 244.222, 2476.350 244.606, 2472.500 245.015 M 2162.500 245.700 C 2160.300 245.899, 2154.818 246.733, 2150.318 247.551 C 2145.818 248.369, 2138.843 250.116, 2134.818 251.432 C 2130.793 252.748, 2124.350 255.282, 2120.500 257.063 C 2116.650 258.844, 2110.350 262.341, 2106.500 264.834 C 2102.650 267.327, 2095.347 273.522, 2090.271 278.601 L 2081.042 287.834 2080.771 268.167 L 2080.500 248.500 2057.500 248.604 L 2034.500 248.707 2034.500 346.604 C 2034.500 400.447, 2034.725 481.850, 2035 527.500 L 2035.500 610.500 2059.500 610.333 L 2083.500 610.166 2083.613 543.333 C 2083.675 506.575, 2083.788 476.201, 2083.863 475.837 C 2083.938 475.472, 2086.813 478.118, 2090.250 481.716 C 2093.688 485.315, 2099.334 490.417, 2102.798 493.054 C 2106.263 495.690, 2113.013 499.858, 2117.798 502.316 C 2122.584 504.773, 2130.550 508.150, 2135.500 509.819 C 2140.450 511.488, 2149.180 513.622, 2154.900 514.562 C 2163.044 515.900, 2168.794 516.147, 2181.400 515.697 C 2191.497 515.338, 2200.856 514.401, 2206.500 513.184 C 2211.450 512.117, 2219.100 510.005, 2223.500 508.491 C 2227.900 506.976, 2234.875 504.046, 2239 501.978 C 2243.125 499.911, 2250.100 495.656, 2254.500 492.523 C 2258.900 489.389, 2265.816 483.602, 2269.868 479.663 C 2273.920 475.723, 2279.814 469.066, 2282.965 464.870 C 2286.116 460.673, 2290.373 454.237, 2292.425 450.567 C 2294.478 446.897, 2297.434 440.798, 2298.995 437.013 C 2300.555 433.229, 2302.792 426.430, 2303.965 421.905 C 2305.138 417.380, 2306.748 409.363, 2307.543 404.089 C 2308.338 398.815, 2308.991 388.258, 2308.994 380.628 C 2308.997 372.999, 2308.305 362.079, 2307.457 356.362 C 2306.608 350.645, 2304.555 341.396, 2302.895 335.809 C 2301.235 330.221, 2298.067 322.016, 2295.855 317.575 C 2293.644 313.134, 2289.434 305.900, 2286.500 301.500 C 2283.566 297.100, 2277.976 290.050, 2274.077 285.834 C 2270.178 281.618, 2263.514 275.554, 2259.269 272.358 C 2255.023 269.163, 2248.237 264.661, 2244.188 262.354 C 2240.139 260.046, 2232.478 256.564, 2227.163 254.614 C 2221.848 252.665, 2213.675 250.166, 2209 249.059 C 2204.325 247.953, 2195.325 246.591, 2189 246.033 C 2182.675 245.474, 2175.025 245.089, 2172 245.177 C 2168.975 245.264, 2164.700 245.500, 2162.500 245.700 M 585.204 257.117 C 581.191 257.651, 573.541 259.196, 568.204 260.549 C 562.867 261.903, 554.225 265.120, 549 267.698 C 540.886 271.702, 538.114 273.780, 530 281.943 C 523.454 288.528, 519.120 293.952, 516.061 299.384 C 513.619 303.720, 510.103 311.309, 508.248 316.249 C 506.392 321.188, 505.071 325.744, 505.312 326.372 C 505.558 327.013, 517.975 329.665, 533.625 332.419 C 548.956 335.117, 562.199 337.506, 563.054 337.728 C 564.162 338.015, 565.811 335.703, 568.802 329.668 C 571.863 323.491, 574.497 319.833, 578.553 316.126 C 582.648 312.383, 585.741 310.547, 590.305 309.150 C 593.712 308.108, 599.477 306.943, 603.115 306.562 C 606.753 306.181, 614.352 306.378, 620.001 307 C 625.651 307.622, 632.800 309.062, 635.887 310.201 C 639.402 311.498, 643.006 313.823, 645.529 316.423 C 648.049 319.020, 650.205 322.575, 651.283 325.914 C 652.232 328.851, 653.297 335.017, 653.651 339.617 L 654.293 347.979 650.471 349.576 C 648.369 350.455, 643.916 352.007, 640.575 353.025 C 637.234 354.044, 630.900 355.781, 626.500 356.885 C 622.100 357.989, 607.464 361.152, 593.976 363.913 C 580.488 366.675, 565.487 370.083, 560.642 371.487 C 555.796 372.891, 548.345 375.384, 544.084 377.028 C 539.823 378.671, 533.560 381.699, 530.166 383.758 C 526.772 385.816, 521.470 389.975, 518.384 393 C 515.298 396.025, 511.433 400.441, 509.795 402.813 C 508.158 405.184, 505.537 409.949, 503.972 413.401 C 502.407 416.854, 500.365 423.437, 499.434 428.030 C 498.181 434.211, 497.871 439.388, 498.238 447.942 C 498.625 456.927, 499.338 461.281, 501.441 467.500 C 502.930 471.900, 505.543 477.975, 507.249 481 C 508.956 484.025, 514.210 490.351, 518.926 495.058 C 525.332 501.452, 529.529 504.659, 535.527 507.742 C 539.942 510.012, 546.824 512.775, 550.819 513.883 C 554.814 514.990, 562.655 516.427, 568.244 517.077 C 574.300 517.781, 582.391 517.983, 588.274 517.578 C 593.702 517.204, 602.499 515.796, 607.822 514.448 C 613.145 513.101, 621.287 510.183, 625.916 507.965 C 630.545 505.748, 637.295 501.954, 640.916 499.536 C 644.537 497.118, 650.064 492.843, 653.198 490.036 L 658.895 484.933 661.008 492.217 C 662.169 496.222, 664.029 502.313, 665.141 505.750 L 667.163 512 700.082 512 C 718.187 512, 733 511.837, 733 511.638 C 733 511.439, 731.701 508.402, 730.113 504.888 C 728.526 501.375, 726.022 494.675, 724.550 490 C 723.078 485.325, 721.115 477, 720.187 471.500 C 718.707 462.725, 718.534 453.907, 718.779 399.500 C 718.951 361.290, 718.650 333.087, 717.996 326 C 717.411 319.675, 716.026 310.627, 714.917 305.893 C 713.668 300.564, 711.492 294.902, 709.200 291.023 C 707.165 287.579, 702.901 282.353, 699.726 279.410 C 696.550 276.468, 690.803 272.190, 686.955 269.904 C 683.107 267.618, 676.255 264.474, 671.729 262.917 C 667.203 261.360, 659.450 259.334, 654.500 258.415 C 647.906 257.191, 638.416 256.664, 619 256.445 C 604.425 256.280, 589.217 256.582, 585.204 257.117 M 851 256.729 C 849.075 256.954, 843.225 257.967, 838 258.981 C 832.775 259.995, 824.546 262.262, 819.713 264.020 C 814.880 265.778, 807.680 269.349, 803.713 271.956 C 799.746 274.564, 794.069 279.127, 791.098 282.098 C 788.127 285.069, 783.583 290.715, 781.001 294.645 C 778.283 298.780, 775.082 305.521, 773.402 310.645 C 770.826 318.504, 770.500 320.905, 770.500 332 C 770.500 339.172, 771.079 346.845, 771.859 350 C 772.607 353.025, 774.758 358.755, 776.639 362.734 C 778.520 366.713, 782.255 372.606, 784.939 375.831 C 787.622 379.055, 792.606 383.789, 796.013 386.351 C 799.421 388.912, 805.649 392.644, 809.854 394.643 C 814.059 396.643, 824.723 400.666, 833.552 403.584 C 842.380 406.503, 861.055 411.659, 875.052 415.044 C 889.048 418.428, 904.889 422.519, 910.254 424.136 C 917.839 426.421, 920.776 427.842, 923.456 430.523 C 925.494 432.561, 927.178 435.431, 927.574 437.541 C 927.942 439.505, 928.027 443.369, 927.762 446.127 C 927.440 449.481, 926.324 452.494, 924.390 455.230 C 922.639 457.708, 919.136 460.628, 915.500 462.641 C 912.200 464.467, 906.125 466.751, 902 467.715 C 896.777 468.937, 890.553 469.452, 881.500 469.412 C 872.387 469.372, 866.578 468.831, 862.071 467.603 C 858.536 466.641, 853.381 464.707, 850.617 463.306 C 847.853 461.906, 843.321 458.430, 840.546 455.582 C 837.771 452.734, 834.275 447.893, 832.779 444.824 C 831.282 441.754, 829.501 437.163, 828.821 434.620 C 827.921 431.256, 827.164 430.116, 826.042 430.433 C 825.194 430.672, 810.325 432.980, 793 435.560 C 775.675 438.141, 761.341 440.392, 761.147 440.562 C 760.953 440.733, 761.804 443.938, 763.037 447.686 C 764.271 451.434, 766.624 457.200, 768.267 460.500 C 769.911 463.800, 772.816 468.862, 774.725 471.750 C 776.633 474.637, 780.288 479.332, 782.847 482.182 C 785.406 485.032, 790.683 489.895, 794.573 492.989 C 798.463 496.083, 805.688 500.702, 810.629 503.254 C 815.569 505.805, 823.186 509.065, 827.555 510.497 C 831.925 511.929, 840.675 514.042, 847 515.192 C 856.454 516.912, 862.502 517.284, 881 517.284 C 899.483 517.284, 905.553 516.911, 915 515.195 C 921.325 514.046, 930.100 511.900, 934.500 510.426 C 938.900 508.951, 945.200 506.400, 948.500 504.755 C 951.800 503.110, 957.202 499.848, 960.504 497.507 C 963.807 495.165, 969.718 489.871, 973.640 485.742 C 977.562 481.613, 982.597 475.145, 984.828 471.367 C 987.059 467.590, 990.092 460.900, 991.569 456.500 C 993.596 450.460, 994.377 445.792, 994.757 437.448 C 995.127 429.353, 994.809 424.136, 993.570 417.948 C 992.639 413.302, 990.310 406.304, 988.393 402.398 C 986.476 398.492, 982.686 392.803, 979.970 389.756 C 977.255 386.709, 972.604 382.604, 969.635 380.633 C 966.665 378.662, 960.476 375.173, 955.880 372.880 C 951.283 370.586, 942.656 366.974, 936.707 364.852 C 930.758 362.730, 912.299 357.653, 895.687 353.570 C 879.074 349.487, 860.986 344.711, 855.491 342.956 C 849.996 341.200, 843.925 338.959, 842 337.974 C 840.075 336.989, 837.211 334.826, 835.636 333.168 C 833.634 331.060, 832.617 328.779, 832.258 325.593 C 831.965 322.997, 832.283 319.732, 832.995 318.012 C 833.683 316.350, 835.758 313.663, 837.606 312.041 C 839.454 310.418, 843.928 308.176, 847.548 307.058 C 851.167 305.940, 858.263 304.517, 863.315 303.895 C 868.440 303.265, 876.575 303.046, 881.719 303.401 C 886.789 303.750, 893.635 304.876, 896.933 305.902 C 900.230 306.928, 904.932 308.942, 907.380 310.377 C 909.829 311.812, 913.417 314.837, 915.353 317.100 C 917.290 319.362, 920.092 324.007, 921.579 327.422 L 924.284 333.630 938.392 330.948 C 946.151 329.473, 960.223 326.813, 969.663 325.038 L 986.827 321.809 985.020 316.654 C 984.026 313.820, 982.286 309.373, 981.152 306.773 C 980.018 304.173, 977.446 299.475, 975.436 296.332 C 973.426 293.190, 970.143 288.634, 968.141 286.208 C 966.138 283.782, 961.423 279.373, 957.662 276.410 C 953.901 273.447, 947.601 269.453, 943.662 267.534 C 939.723 265.616, 932.511 262.910, 927.635 261.522 C 922.760 260.134, 913.624 258.324, 907.334 257.499 C 899.852 256.518, 888.741 256.055, 875.199 256.160 C 863.814 256.248, 852.925 256.504, 851 256.729 M 1022 261.409 C 1022 261.634, 1043.411 318.222, 1069.581 387.159 L 1117.161 512.500 1115.510 518 C 1114.602 521.025, 1111.855 527.597, 1109.407 532.604 C 1106.741 538.057, 1102.786 544.105, 1099.545 547.687 C 1095.736 551.897, 1092.362 554.462, 1088.151 556.352 C 1084.860 557.829, 1079.542 559.532, 1076.334 560.136 C 1072.930 560.778, 1066.127 560.991, 1060 560.648 C 1054.225 560.324, 1047.065 559.594, 1044.088 559.025 C 1041.112 558.456, 1038.500 558.167, 1038.285 558.382 C 1038.069 558.597, 1039.218 570.100, 1040.837 583.944 C 1042.456 597.787, 1044.066 609.400, 1044.416 609.749 C 1044.765 610.099, 1048.302 610.977, 1052.276 611.700 C 1056.249 612.424, 1066.250 613.293, 1074.500 613.631 C 1083.548 614.002, 1093.110 613.800, 1098.597 613.121 C 1103.601 612.502, 1111.227 611.093, 1115.543 609.989 C 1119.860 608.885, 1127.016 606.211, 1131.446 604.046 C 1135.876 601.882, 1141.841 598.169, 1144.702 595.794 C 1147.563 593.420, 1152.423 588.332, 1155.501 584.489 C 1158.723 580.465, 1163.806 571.985, 1167.483 564.500 C 1172.079 555.142, 1188.569 511.301, 1226.346 408 C 1255.210 329.075, 1279.140 263.707, 1279.524 262.737 C 1280.186 261.070, 1278.326 260.988, 1245.508 261.237 L 1210.793 261.500 1181.947 349.366 C 1166.082 397.692, 1152.927 437.407, 1152.713 437.620 C 1152.499 437.834, 1140.232 402.119, 1125.452 358.254 C 1110.672 314.390, 1097.292 274.563, 1095.719 269.750 L 1092.858 261 1057.429 261 C 1037.943 261, 1022 261.184, 1022 261.409 M 2476.585 287.041 C 2473.331 287.552, 2467.347 288.881, 2463.286 289.995 C 2459.224 291.109, 2453.111 293.428, 2449.701 295.147 C 2446.290 296.867, 2440.972 299.988, 2437.883 302.084 C 2434.794 304.179, 2429.482 308.678, 2426.080 312.080 C 2422.678 315.482, 2418.083 320.933, 2415.870 324.192 C 2413.656 327.451, 2410.312 333.354, 2408.439 337.309 C 2406.565 341.264, 2404.047 348.100, 2402.843 352.500 C 2400.988 359.280, 2400.642 363.245, 2400.577 378.500 C 2400.515 393.104, 2400.860 397.915, 2402.407 404 C 2403.456 408.125, 2405.556 414.567, 2407.074 418.315 C 2408.592 422.063, 2411.334 427.617, 2413.167 430.658 C 2415 433.698, 2419.113 439.298, 2422.306 443.101 C 2425.499 446.905, 2431.124 452.302, 2434.806 455.094 C 2438.488 457.886, 2445.100 461.915, 2449.500 464.047 C 2453.900 466.179, 2461.325 468.811, 2466 469.895 C 2470.675 470.979, 2478.325 472.156, 2483 472.511 C 2487.675 472.866, 2495.350 472.670, 2500.055 472.075 C 2504.760 471.479, 2511.285 470.305, 2514.555 469.465 C 2517.825 468.624, 2523.835 466.364, 2527.911 464.441 C 2531.987 462.518, 2538.062 458.976, 2541.411 456.568 C 2544.760 454.160, 2549.464 450.235, 2551.864 447.845 C 2554.264 445.455, 2558.192 440.756, 2560.592 437.403 C 2562.993 434.050, 2566.538 428.107, 2568.470 424.198 C 2570.402 420.288, 2573.188 412.682, 2574.660 407.295 C 2577.049 398.552, 2577.346 395.675, 2577.418 380.500 C 2577.480 367.760, 2577.064 361.543, 2575.760 355.692 C 2574.803 351.397, 2572.637 344.429, 2570.947 340.208 C 2569.256 335.986, 2565.473 328.925, 2562.539 324.516 C 2559.606 320.107, 2554.533 313.951, 2551.268 310.837 C 2548.002 307.722, 2542.065 303.061, 2538.075 300.480 C 2534.085 297.899, 2528.142 294.699, 2524.868 293.368 C 2521.594 292.038, 2515.225 290.068, 2510.714 288.991 C 2506.202 287.913, 2498.009 286.825, 2492.506 286.572 C 2487.003 286.319, 2479.838 286.530, 2476.585 287.041 M 2150.867 289.902 C 2146.119 290.937, 2139.369 293.038, 2135.867 294.572 C 2132.365 296.106, 2125.900 299.698, 2121.500 302.554 C 2117.100 305.409, 2111.075 310.166, 2108.111 313.123 C 2105.147 316.080, 2100.359 322.100, 2097.471 326.500 C 2094.583 330.900, 2091.099 337.200, 2089.731 340.500 C 2088.362 343.800, 2086.520 349.425, 2085.638 353 C 2084.756 356.575, 2083.559 364, 2082.977 369.500 C 2082.395 375, 2082.192 382.875, 2082.524 387 C 2082.857 391.125, 2083.810 398.325, 2084.642 403 C 2085.474 407.675, 2087.550 414.875, 2089.256 419 C 2090.962 423.125, 2094.190 429.588, 2096.429 433.361 C 2098.668 437.135, 2103.650 443.492, 2107.500 447.488 C 2111.350 451.484, 2117.971 457.010, 2122.213 459.769 C 2126.455 462.527, 2133.655 466.130, 2138.213 467.776 C 2142.771 469.421, 2149.200 471.358, 2152.500 472.080 C 2155.800 472.802, 2164.350 473.400, 2171.500 473.409 C 2180.552 473.420, 2186.906 472.873, 2192.425 471.606 C 2196.783 470.605, 2203.863 468.304, 2208.158 466.493 C 2212.453 464.681, 2218.944 461.074, 2222.584 458.477 C 2226.223 455.880, 2231.674 451.282, 2234.697 448.259 C 2237.721 445.236, 2242.219 439.633, 2244.693 435.808 C 2247.168 431.982, 2250.469 426.037, 2252.029 422.596 C 2253.590 419.154, 2255.831 412.775, 2257.010 408.419 C 2258.603 402.536, 2259.292 396.388, 2259.692 384.500 C 2260.116 371.912, 2259.870 366.586, 2258.541 359.525 C 2257.611 354.588, 2255.509 347.069, 2253.869 342.816 C 2252.229 338.563, 2248.651 331.658, 2245.918 327.471 C 2243.185 323.285, 2238.848 317.613, 2236.280 314.869 C 2233.713 312.124, 2228.887 307.829, 2225.556 305.325 C 2222.225 302.821, 2216.076 299.050, 2211.890 296.945 C 2207.705 294.841, 2200.730 292.153, 2196.390 290.972 C 2190.563 289.387, 2184.709 288.721, 2174 288.424 C 2162.407 288.102, 2157.769 288.399, 2150.867 289.902 M 646.500 394.134 C 643.200 395.145, 630.495 398.252, 618.268 401.039 C 606.040 403.827, 592.964 407.152, 589.209 408.429 C 585.455 409.706, 581.045 411.442, 579.410 412.288 C 577.775 413.134, 574.340 416.067, 571.777 418.807 C 568.428 422.388, 566.645 425.413, 565.439 429.562 C 564.338 433.349, 563.961 437.022, 564.343 440.244 C 564.662 442.945, 566.045 447.604, 567.416 450.597 C 568.786 453.591, 572.173 458.247, 574.942 460.944 C 578.049 463.969, 582.184 466.724, 585.738 468.135 C 590.279 469.937, 593.514 470.430, 601 470.461 C 608.403 470.491, 612.117 469.970, 617.828 468.100 C 621.858 466.779, 627.840 463.964, 631.121 461.843 C 634.402 459.723, 639.066 455.951, 641.486 453.461 C 643.905 450.972, 647.029 446.587, 648.428 443.718 C 649.827 440.848, 651.441 436.025, 652.014 433 C 652.587 429.975, 653.336 419.806, 653.680 410.403 C 654.039 400.557, 653.921 393.092, 653.402 392.802 C 652.906 392.524, 649.800 393.124, 646.500 394.134" stroke="none" fill="#1267cc" fill-rule="evenodd"/><path d="M 92.500 4.074 C 89.750 4.537, 83.542 6.064, 78.703 7.467 C 73.865 8.870, 67.115 11.422, 63.703 13.137 C 60.292 14.852, 54.350 18.284, 50.500 20.762 C 46.650 23.241, 39.747 28.921, 35.159 33.384 C 30.571 37.848, 24.410 45.111, 21.467 49.525 C 18.523 53.938, 14.526 60.913, 12.584 65.025 C 10.642 69.136, 7.803 77, 6.276 82.500 L 3.500 92.500 3.500 359.500 L 3.500 626.500 6.276 636.500 C 7.803 642, 10.642 649.864, 12.584 653.975 C 14.526 658.087, 18.523 665.062, 21.467 669.475 C 24.410 673.889, 30.571 681.152, 35.159 685.616 C 39.747 690.079, 46.765 695.840, 50.755 698.417 C 54.745 700.994, 61.270 704.643, 65.255 706.525 C 69.240 708.407, 77 711.197, 82.500 712.724 L 92.500 715.500 1586.500 715.500 L 3080.500 715.500 3090.500 712.724 C 3096 711.197, 3103.864 708.358, 3107.975 706.416 C 3112.087 704.474, 3119.062 700.477, 3123.475 697.533 C 3127.889 694.590, 3135.152 688.429, 3139.616 683.841 C 3144.079 679.253, 3149.840 672.235, 3152.417 668.245 C 3154.994 664.255, 3158.643 657.730, 3160.525 653.745 C 3162.407 649.760, 3165.197 642, 3166.724 636.500 L 3169.500 626.500 3169.500 359.500 L 3169.500 92.500 3166.724 82.500 C 3165.197 77, 3162.358 69.136, 3160.416 65.025 C 3158.474 60.913, 3154.477 53.938, 3151.533 49.525 C 3148.590 45.111, 3142.429 37.848, 3137.841 33.384 C 3133.253 28.921, 3126.235 23.160, 3122.245 20.583 C 3118.255 18.006, 3111.730 14.358, 3107.745 12.477 C 3103.760 10.597, 3096.225 7.807, 3091 6.279 L 3081.500 3.500 1589.500 3.366 C 768.900 3.292, 95.250 3.610, 92.500 4.074 M 2062 60.057 C 2043.025 62.691, 2026.900 64.880, 2026.167 64.923 C 2025.433 64.965, 2024.983 65.413, 2025.167 65.918 C 2025.350 66.422, 2030.450 70.605, 2036.500 75.212 C 2042.550 79.819, 2047.456 84.246, 2047.402 85.050 C 2047.348 85.853, 2019.738 122.733, 1986.046 167.005 C 1952.354 211.277, 1924.242 247.950, 1923.575 248.500 C 1922.908 249.050, 1917.640 255.800, 1911.869 263.500 C 1906.098 271.200, 1890.195 292.350, 1876.529 310.500 C 1862.863 328.650, 1851.377 343.725, 1851.004 344 C 1850.630 344.275, 1839.114 359.362, 1825.413 377.526 C 1811.711 395.691, 1796.408 415.941, 1791.406 422.526 C 1786.405 429.112, 1781.537 435.142, 1780.590 435.928 C 1779.642 436.713, 1774.078 443.688, 1768.225 451.428 C 1762.372 459.167, 1754.290 469.775, 1750.264 475 C 1746.238 480.225, 1731.714 499.350, 1717.989 517.500 C 1704.263 535.650, 1688.291 556.715, 1682.494 564.311 C 1676.697 571.907, 1666.058 585.857, 1658.853 595.311 C 1651.647 604.765, 1641.195 618.513, 1635.626 625.861 C 1630.057 633.210, 1621.293 644.685, 1616.151 651.361 C 1611.008 658.038, 1605.915 664.737, 1604.833 666.250 L 1602.864 669 1629.812 669 L 1656.760 669 1715.130 592.508 C 1747.234 550.437, 1782.840 503.749, 1794.255 488.758 C 1805.670 473.766, 1822.995 450.827, 1832.755 437.783 C 1842.515 424.738, 1850.782 414.050, 1851.127 414.033 C 1851.472 414.015, 1856.926 420.863, 1863.246 429.250 C 1869.567 437.637, 1884.135 456.889, 1895.619 472.031 C 1907.104 487.173, 1918.975 502.795, 1922 506.747 L 1927.500 513.933 1954.750 513.967 C 1971.041 513.987, 1982 513.623, 1982 513.064 C 1982 512.548, 1969.063 495.625, 1953.250 475.455 C 1937.438 455.285, 1923.375 437.313, 1922 435.516 C 1920.625 433.719, 1916.601 428.480, 1913.057 423.874 C 1909.514 419.268, 1906.341 415.275, 1906.008 415 C 1905.674 414.725, 1899.739 407.267, 1892.820 398.428 C 1885.900 389.588, 1879.655 381.420, 1878.941 380.278 C 1877.755 378.378, 1878.706 376.797, 1890.016 361.850 C 1896.821 352.857, 1904.697 342.575, 1907.519 339 C 1910.341 335.425, 1926.903 313.910, 1944.325 291.189 C 1961.746 268.468, 1976 249.465, 1976 248.960 C 1976 248.455, 1979.377 243.645, 1983.504 238.271 C 1987.631 232.897, 2002.368 213.578, 2016.254 195.339 C 2030.139 177.101, 2050.444 150.439, 2061.375 136.089 C 2072.307 121.740, 2081.475 110, 2081.748 110 C 2082.021 110, 2087.565 114.055, 2094.067 119.010 C 2100.569 123.966, 2106.587 128.288, 2107.441 128.616 C 2108.681 129.092, 2108.891 128.638, 2108.490 126.355 C 2108.213 124.785, 2106.453 112.250, 2104.579 98.500 C 2102.705 84.750, 2100.619 69.338, 2099.944 64.250 C 2099.207 58.698, 2098.273 55.054, 2097.608 55.134 C 2096.999 55.208, 2080.975 57.423, 2062 60.057 M 193 338.500 L 193 512 325 512 L 457 512 457 482.500 L 457 453 360 453 L 263 453 263 406.500 L 263 360 350 360 L 437 360 437 330.500 L 437 301 350 301 L 263 301 263 263 L 263 225 356.500 225 L 450 225 450 195 L 450 165 321.500 165 L 193 165 193 338.500 M 1443.217 165.779 L 1429.935 166.059 1430.186 321.779 C 1430.324 407.426, 1430.591 486.230, 1430.781 496.899 L 1431.124 516.299 1502.812 515.667 C 1542.240 515.319, 1599.623 515.027, 1630.329 515.017 L 1686.158 515 1685.875 494.750 C 1685.720 483.613, 1685.389 473.644, 1685.140 472.597 C 1684.697 470.736, 1682.468 470.710, 1584.122 471.421 C 1528.811 471.821, 1483.094 472.227, 1482.529 472.324 C 1481.871 472.437, 1481.320 466.016, 1481 454.500 C 1480.725 444.600, 1480.623 419.352, 1480.773 398.394 L 1481.046 360.289 1494.273 359.652 C 1501.548 359.302, 1533.825 358.900, 1566 358.758 C 1598.175 358.616, 1631.588 358.365, 1640.250 358.201 L 1656 357.902 1656 336.928 L 1656 315.954 1568.750 316.027 L 1481.500 316.100 1481 263.300 C 1480.725 234.260, 1480.541 210.384, 1480.591 210.242 C 1480.642 210.100, 1497.292 209.768, 1517.591 209.503 C 1537.891 209.239, 1581.905 208.778, 1615.399 208.478 C 1648.893 208.179, 1676.589 207.754, 1676.944 207.535 C 1677.299 207.315, 1677.492 200.918, 1677.373 193.318 C 1677.254 185.718, 1677.122 176.219, 1677.078 172.209 L 1677 164.917 1566.750 165.209 C 1506.112 165.369, 1450.523 165.626, 1443.217 165.779 M 2904.772 187.562 C 2904.444 187.890, 2904.414 200.947, 2904.706 216.579 L 2905.236 245 2882.597 245 L 2859.959 245 2860.229 265.250 L 2860.500 285.500 2882.500 285.500 L 2904.500 285.500 2905.096 365.500 C 2905.614 435.161, 2905.906 446.405, 2907.351 452.500 C 2908.264 456.350, 2909.983 462.200, 2911.170 465.500 C 2912.357 468.800, 2914.470 473.525, 2915.865 476 C 2917.260 478.475, 2920.133 482.873, 2922.250 485.774 C 2924.367 488.675, 2928.664 493.090, 2931.799 495.586 C 2934.935 498.082, 2940.200 501.511, 2943.500 503.205 C 2946.800 504.899, 2952.511 507.310, 2956.191 508.563 C 2959.870 509.816, 2967.203 511.384, 2972.484 512.049 C 2978.192 512.768, 2987.445 513.038, 2995.294 512.715 C 3003.728 512.368, 3011.571 511.406, 3017 510.052 C 3021.675 508.885, 3029.550 505.963, 3034.500 503.558 C 3039.450 501.153, 3044.583 498.027, 3045.907 496.611 L 3048.313 494.038 3040.907 477.033 C 3036.833 467.681, 3033.208 460.022, 3032.850 460.014 C 3032.493 460.006, 3029.938 461.523, 3027.173 463.384 C 3024.407 465.245, 3019.299 467.753, 3015.822 468.956 C 3011.752 470.365, 3005.903 471.345, 2999.401 471.708 C 2992.800 472.077, 2987.431 471.831, 2983.901 470.999 C 2980.930 470.299, 2976.403 468.676, 2973.840 467.392 C 2971.277 466.108, 2967.551 463.357, 2965.559 461.279 C 2963.567 459.200, 2960.639 454.800, 2959.052 451.500 C 2957.466 448.200, 2955.680 442.830, 2955.084 439.566 C 2954.368 435.649, 2954 408.374, 2954 359.316 L 2954 285 2992 285 L 3030 285 3030 265 L 3030 245 2992 245 L 2954 245 2953.878 220.250 C 2953.811 206.637, 2953.698 193.700, 2953.628 191.500 L 2953.500 187.500 2929.434 187.233 C 2916.198 187.086, 2905.100 187.234, 2904.772 187.562 M 2821.931 243.606 C 2815.017 244.294, 2805.117 245.842, 2799.931 247.048 C 2794.744 248.254, 2787.125 250.632, 2783 252.333 C 2778.875 254.034, 2772.870 256.951, 2769.656 258.816 C 2766.442 260.680, 2760.697 264.887, 2756.889 268.165 C 2753.081 271.442, 2747.723 277.316, 2744.983 281.219 L 2740 288.314 2740 267.139 L 2740 245.964 2716.482 246.232 L 2692.965 246.500 2693.108 357.500 C 2693.187 418.550, 2693.377 475.475, 2693.530 484 C 2693.684 492.525, 2693.852 502.087, 2693.905 505.250 L 2694 511 2718.465 511 L 2742.930 511 2742.715 435.250 C 2742.519 366.349, 2742.657 358.845, 2744.235 352.257 C 2745.189 348.274, 2747.341 341.459, 2749.017 337.113 C 2750.693 332.767, 2753.781 326.576, 2755.880 323.356 C 2757.979 320.135, 2762.127 315.085, 2765.098 312.133 C 2768.069 309.181, 2772.419 305.443, 2774.765 303.825 C 2777.111 302.207, 2781.611 299.611, 2784.765 298.055 C 2787.919 296.500, 2793.875 294.247, 2798 293.049 C 2803.585 291.426, 2809.395 290.722, 2820.750 290.291 L 2836 289.713 2836 266.415 C 2836 253.602, 2835.662 242.947, 2835.250 242.737 C 2834.838 242.528, 2828.844 242.919, 2821.931 243.606 M 2475 244.595 C 2473.075 244.826, 2467.021 245.730, 2461.548 246.603 C 2456.074 247.477, 2447.634 249.486, 2442.792 251.068 C 2437.950 252.650, 2430.682 255.472, 2426.642 257.339 C 2422.602 259.206, 2415.425 263.309, 2410.694 266.457 C 2405.962 269.606, 2399.072 274.847, 2395.382 278.105 C 2391.691 281.362, 2386.233 286.834, 2383.251 290.264 C 2380.269 293.694, 2375.442 300.100, 2372.524 304.500 C 2369.607 308.900, 2365.872 315.200, 2364.225 318.500 C 2362.578 321.800, 2359.886 328.550, 2358.242 333.500 C 2356.599 338.450, 2354.441 346.775, 2353.446 352 C 2352.144 358.841, 2351.639 366.257, 2351.642 378.500 C 2351.644 390.241, 2352.189 398.593, 2353.402 405.500 C 2354.369 411, 2356.721 420.225, 2358.630 426 C 2360.539 431.775, 2364.156 440.325, 2366.668 445 C 2369.180 449.675, 2373.308 456.425, 2375.841 460 C 2378.375 463.575, 2383.923 470.123, 2388.170 474.551 C 2392.418 478.979, 2399.405 485.127, 2403.697 488.213 C 2407.988 491.300, 2414.875 495.637, 2419 497.853 C 2423.125 500.068, 2430.100 503.322, 2434.500 505.083 C 2438.900 506.844, 2446.775 509.310, 2452 510.563 C 2457.225 511.815, 2465.965 513.392, 2471.423 514.065 C 2477.728 514.844, 2486.659 515.065, 2495.923 514.673 C 2504.347 514.316, 2514.299 513.226, 2519.500 512.090 C 2524.450 511.010, 2532.100 508.961, 2536.500 507.538 C 2540.900 506.115, 2549.462 502.477, 2555.527 499.455 C 2561.593 496.432, 2570.409 491.067, 2575.120 487.531 C 2579.830 483.996, 2587.243 477.340, 2591.592 472.740 C 2595.941 468.140, 2601.588 461.255, 2604.141 457.438 C 2606.694 453.622, 2610.630 446.832, 2612.888 442.349 C 2615.147 437.866, 2618.331 430.107, 2619.965 425.107 C 2621.599 420.108, 2623.710 411.851, 2624.657 406.758 C 2625.872 400.220, 2626.382 392.212, 2626.394 379.500 C 2626.406 366.373, 2625.936 359.063, 2624.657 352.500 C 2623.693 347.550, 2621.818 339.900, 2620.492 335.500 C 2619.165 331.100, 2616.055 323.344, 2613.580 318.265 C 2611.106 313.185, 2606.867 305.760, 2604.160 301.765 C 2601.454 297.769, 2596.432 291.448, 2593.001 287.718 C 2589.571 283.987, 2583.554 278.362, 2579.632 275.217 C 2575.709 272.072, 2570.475 268.094, 2568 266.378 C 2565.525 264.661, 2559.900 261.454, 2555.500 259.251 C 2551.100 257.049, 2543.365 253.830, 2538.310 252.099 C 2533.256 250.368, 2524.256 248.049, 2518.310 246.945 C 2511.894 245.754, 2501.606 244.784, 2493 244.557 C 2485.025 244.347, 2476.925 244.364, 2475 244.595 M 2156 246.460 C 2150.775 247.229, 2142.450 249.034, 2137.500 250.471 C 2132.550 251.908, 2124 255.293, 2118.500 257.994 C 2113 260.695, 2105.543 265.152, 2101.928 267.899 C 2098.314 270.645, 2092.136 276.283, 2088.199 280.427 L 2081.042 287.962 2080.771 268.231 L 2080.500 248.500 2057.215 248.231 L 2033.929 247.963 2034.215 370.731 C 2034.372 438.254, 2034.620 519.975, 2034.766 552.333 L 2035.032 611.166 2059.266 610.833 L 2083.500 610.500 2083.500 543.250 C 2083.500 506.262, 2083.725 476.009, 2084 476.020 C 2084.275 476.032, 2087.875 479.447, 2092 483.610 C 2096.125 487.773, 2103.100 493.553, 2107.500 496.453 C 2111.900 499.353, 2118.425 503.083, 2122 504.742 C 2125.575 506.401, 2132.196 508.925, 2136.714 510.351 C 2141.232 511.778, 2149.308 513.691, 2154.660 514.604 C 2162.287 515.904, 2168.077 516.139, 2181.445 515.694 C 2191.467 515.360, 2201.585 514.444, 2205.981 513.473 C 2210.095 512.565, 2217.070 510.687, 2221.481 509.299 C 2225.891 507.912, 2233.100 504.990, 2237.500 502.805 C 2241.900 500.620, 2249.139 496.390, 2253.586 493.405 C 2258.034 490.420, 2265.786 483.875, 2270.814 478.862 C 2275.841 473.849, 2282.644 465.821, 2285.930 461.023 C 2289.216 456.224, 2293.474 449.172, 2295.392 445.351 C 2297.309 441.531, 2300.084 434.826, 2301.559 430.452 C 2303.033 426.078, 2305.119 418.450, 2306.196 413.500 C 2307.534 407.347, 2308.327 398.805, 2308.703 386.497 C 2309.051 375.119, 2308.818 365.183, 2308.069 359.497 C 2307.418 354.549, 2305.961 346.719, 2304.831 342.098 C 2303.701 337.476, 2301.240 329.885, 2299.363 325.229 C 2297.485 320.572, 2294.091 313.553, 2291.820 309.631 C 2289.549 305.709, 2284.866 298.858, 2281.413 294.407 C 2277.961 289.955, 2271.870 283.290, 2267.879 279.594 C 2263.888 275.899, 2256.995 270.478, 2252.561 267.547 C 2248.127 264.617, 2241.675 260.807, 2238.223 259.081 C 2234.770 257.356, 2227.843 254.569, 2222.829 252.889 C 2217.815 251.209, 2209.267 248.973, 2203.834 247.920 C 2198.388 246.864, 2187.571 245.793, 2179.728 245.533 C 2170.348 245.222, 2162.263 245.538, 2156 246.460 M 1725.006 250.250 C 1725.009 250.938, 1727.371 254.520, 1730.256 258.211 C 1733.140 261.903, 1738.200 268.391, 1741.500 272.630 C 1744.800 276.870, 1749.975 283.565, 1753 287.509 C 1756.025 291.452, 1769.750 309.238, 1783.500 327.033 C 1797.250 344.828, 1808.978 360.021, 1809.562 360.797 C 1810.401 361.910, 1813.338 358.687, 1823.562 345.428 C 1830.678 336.200, 1836.836 328.097, 1837.246 327.421 C 1837.699 326.674, 1835.916 323.512, 1832.690 319.347 C 1829.775 315.581, 1816.447 298.212, 1803.073 280.750 L 1778.758 249 1751.879 249 C 1731.039 249, 1725.001 249.281, 1725.006 250.250 M 595.217 256.046 C 590.112 256.464, 583.036 257.311, 579.494 257.928 C 575.952 258.544, 569.127 260.187, 564.327 261.578 C 559.526 262.969, 552.071 265.943, 547.759 268.186 C 542.977 270.674, 536.985 275.005, 532.399 279.287 C 528.264 283.149, 522.873 289.123, 520.419 292.561 C 517.965 296, 514.213 302.568, 512.080 307.156 C 509.947 311.745, 507.401 318.082, 506.422 321.238 C 505.443 324.394, 504.835 327.125, 505.071 327.308 C 505.307 327.490, 517.875 329.791, 533 332.421 C 548.125 335.050, 561.480 337.422, 562.678 337.691 C 564.564 338.115, 565.323 337.169, 568.339 330.643 C 570.266 326.471, 573.877 320.907, 576.426 318.182 C 579.334 315.074, 583.330 312.215, 587.266 310.428 C 592.868 307.885, 594.838 307.556, 606.685 307.185 C 614.346 306.945, 622.726 307.268, 626.685 307.955 C 630.433 308.605, 635.519 310.028, 637.988 311.117 C 640.456 312.207, 643.538 314.088, 644.837 315.299 C 646.135 316.509, 648.354 319.750, 649.766 322.500 C 651.910 326.675, 652.409 329.244, 652.788 338.068 L 653.242 348.636 648.871 350.229 C 646.467 351.105, 642.250 352.533, 639.500 353.403 C 636.750 354.272, 627.750 356.528, 619.500 358.415 C 611.250 360.302, 599.325 362.810, 593 363.988 C 586.675 365.167, 577 367.246, 571.500 368.607 C 566 369.969, 557.225 372.471, 552 374.167 C 546.775 375.863, 539.125 378.987, 535 381.108 C 530.875 383.230, 525.250 386.816, 522.500 389.077 C 519.750 391.339, 515.600 395.490, 513.278 398.303 C 510.956 401.116, 507.735 405.911, 506.120 408.959 C 504.504 412.006, 502.193 417.425, 500.983 421 C 499.338 425.861, 498.653 430.789, 498.268 440.543 C 497.829 451.654, 498.067 454.840, 499.872 462.043 C 501.037 466.694, 503.580 473.739, 505.524 477.698 C 507.846 482.428, 511.635 487.635, 516.577 492.888 C 520.713 497.285, 526.887 502.638, 530.298 504.784 C 533.709 506.930, 539.495 509.879, 543.155 511.337 C 546.815 512.795, 553.115 514.698, 557.155 515.567 C 561.195 516.435, 569.710 517.401, 576.078 517.712 C 584.579 518.128, 590.362 517.826, 597.840 516.575 C 603.442 515.639, 611.057 513.840, 614.763 512.578 C 618.468 511.316, 624.875 508.592, 629 506.525 C 633.125 504.458, 639.425 500.698, 643 498.170 C 646.575 495.642, 651.599 491.619, 654.165 489.230 C 658.133 485.535, 658.906 485.156, 659.342 486.693 C 659.624 487.687, 661.478 493.788, 663.462 500.250 L 667.069 512 700.141 512 C 726.219 512, 733.101 511.736, 732.678 510.750 C 732.384 510.063, 730.526 505.599, 728.551 500.830 C 726.575 496.062, 724.062 488.651, 722.965 484.362 C 721.868 480.072, 720.459 472.499, 719.835 467.531 C 719.086 461.567, 718.730 436.769, 718.786 394.500 C 718.833 359.300, 718.456 326.900, 717.947 322.500 C 717.439 318.100, 716.316 311.256, 715.452 307.292 C 714.589 303.327, 712.477 297.252, 710.760 293.792 C 708.860 289.964, 705.065 284.919, 701.069 280.911 C 697.456 277.287, 690.900 272.213, 686.500 269.636 C 682.100 267.059, 675.068 263.861, 670.874 262.530 C 666.680 261.200, 659.480 259.415, 654.874 258.565 C 650.268 257.715, 640.425 256.566, 633 256.012 C 625.575 255.458, 616.125 255.068, 612 255.145 C 607.875 255.222, 600.323 255.627, 595.217 256.046 M 857.500 255.960 C 852.550 256.409, 844.656 257.499, 839.957 258.382 C 835.258 259.265, 827.450 261.327, 822.604 262.965 C 817.759 264.602, 811.029 267.497, 807.648 269.398 C 804.266 271.298, 799.121 274.894, 796.212 277.389 C 793.304 279.884, 788.884 284.304, 786.389 287.212 C 783.894 290.121, 780.351 295.200, 778.515 298.500 C 776.679 301.800, 774.194 307.650, 772.992 311.500 C 771.548 316.129, 770.638 322.227, 770.306 329.500 C 769.947 337.381, 770.252 342.600, 771.381 347.906 C 772.248 351.979, 774.343 358.273, 776.036 361.891 C 777.730 365.510, 780.908 370.846, 783.100 373.748 C 785.291 376.650, 790.102 381.527, 793.792 384.585 C 797.481 387.643, 804.100 391.884, 808.500 394.009 C 812.900 396.134, 821.875 399.714, 828.444 401.964 C 835.013 404.215, 848.513 408.263, 858.444 410.958 C 868.375 413.654, 884.507 417.736, 894.294 420.028 C 905.850 422.736, 914.240 425.302, 918.230 427.348 C 922.571 429.575, 924.923 431.527, 926.246 434 C 927.669 436.660, 928.038 439.086, 927.784 444.111 C 927.524 449.258, 926.852 451.625, 924.748 454.805 C 923.261 457.052, 919.941 460.123, 917.369 461.630 C 914.797 463.137, 910.253 465.175, 907.271 466.159 C 904.289 467.142, 897.209 468.419, 891.538 468.996 C 884.508 469.711, 878.401 469.725, 872.353 469.040 C 867.473 468.487, 861.202 467.358, 858.416 466.531 C 855.631 465.704, 850.666 463.291, 847.383 461.169 C 844.101 459.048, 839.980 455.500, 838.227 453.286 C 836.473 451.072, 833.680 446.389, 832.019 442.880 C 830.359 439.371, 828.718 435.003, 828.374 433.173 C 827.855 430.414, 827.386 429.931, 825.624 430.345 C 824.456 430.620, 809.550 432.952, 792.500 435.529 C 775.450 438.106, 761.341 440.362, 761.147 440.543 C 760.953 440.724, 761.804 443.938, 763.038 447.686 C 764.272 451.434, 766.846 457.650, 768.758 461.500 C 770.670 465.350, 774.402 471.425, 777.051 475 C 779.700 478.575, 784.260 483.810, 787.184 486.634 C 790.108 489.458, 795.242 493.757, 798.592 496.187 C 801.943 498.617, 808.018 502.239, 812.092 504.235 C 816.167 506.232, 822.425 508.839, 826 510.029 C 829.575 511.220, 836.334 513.031, 841.019 514.055 C 845.704 515.079, 854.929 516.446, 861.519 517.093 C 868.551 517.783, 879.903 518.033, 889 517.697 C 897.525 517.382, 908.550 516.407, 913.500 515.529 C 918.450 514.651, 925.875 513.004, 930 511.869 C 934.125 510.734, 941.255 508.059, 945.844 505.924 C 950.432 503.789, 956.993 500.040, 960.422 497.593 C 963.851 495.146, 969.997 489.582, 974.079 485.229 C 978.160 480.876, 983.199 474.432, 985.276 470.908 C 987.352 467.383, 990.228 460.900, 991.667 456.500 C 993.708 450.257, 994.381 445.864, 994.731 436.500 C 995.049 427.972, 994.731 422.385, 993.631 417.191 C 992.780 413.172, 990.520 406.647, 988.609 402.691 C 986.698 398.736, 982.842 392.939, 980.039 389.808 C 977.236 386.677, 971.836 382.050, 968.038 379.525 C 964.241 377.001, 958.066 373.538, 954.317 371.831 C 950.567 370.124, 942.605 366.975, 936.622 364.834 C 930.640 362.693, 912.137 357.597, 895.505 353.509 C 878.874 349.422, 860.819 344.657, 855.383 342.921 C 849.947 341.185, 843.925 338.959, 842 337.974 C 840.075 336.989, 837.198 334.813, 835.608 333.138 C 833.466 330.884, 832.594 328.826, 832.246 325.212 C 831.928 321.894, 832.293 319.334, 833.388 317.217 C 834.273 315.505, 836.560 312.912, 838.468 311.456 C 840.377 310.001, 844.727 307.941, 848.136 306.881 C 851.544 305.820, 859.412 304.538, 865.620 304.032 C 872.524 303.469, 880.388 303.472, 885.872 304.039 C 890.802 304.549, 897.390 305.922, 900.512 307.090 C 903.633 308.258, 908.508 311.093, 911.344 313.389 C 915.219 316.526, 917.505 319.560, 920.544 325.595 L 924.588 333.627 952.044 328.480 C 967.145 325.649, 981.172 323.015, 983.215 322.628 L 986.929 321.923 984.357 314.711 C 982.942 310.745, 980.477 305.025, 978.878 302 C 977.279 298.975, 973.700 293.474, 970.925 289.775 C 968.150 286.077, 962.905 280.583, 959.271 277.566 C 955.636 274.549, 949.026 270.267, 944.581 268.050 C 940.137 265.834, 932.590 262.913, 927.811 261.560 C 923.032 260.207, 914.482 258.416, 908.811 257.580 C 903.140 256.745, 891.300 255.854, 882.500 255.602 C 873.700 255.349, 862.450 255.510, 857.500 255.960 M 1022 261.450 C 1022 261.697, 1043.418 318.285, 1069.597 387.200 L 1117.193 512.500 1114.378 520.954 C 1112.830 525.604, 1109.389 533.029, 1106.732 537.454 C 1104.076 541.879, 1100.237 547.213, 1098.201 549.306 C 1096.165 551.399, 1091.775 554.455, 1088.445 556.097 C 1084.252 558.165, 1079.634 559.431, 1073.431 560.214 C 1066.066 561.143, 1062.171 561.055, 1051.526 559.717 C 1044.404 558.821, 1038.406 558.261, 1038.196 558.471 C 1037.986 558.681, 1039.074 569.952, 1040.613 583.518 C 1042.153 597.083, 1043.882 608.795, 1044.456 609.545 C 1045.084 610.364, 1050.288 611.568, 1057.500 612.564 C 1066.469 613.802, 1073.794 614.091, 1086.500 613.709 C 1100.411 613.290, 1105.302 612.727, 1113.421 610.613 C 1118.878 609.191, 1126.181 606.700, 1129.651 605.076 C 1133.120 603.453, 1137.982 600.732, 1140.455 599.031 C 1142.927 597.330, 1147.267 593.590, 1150.099 590.719 C 1152.931 587.849, 1156.931 583.025, 1158.989 580 C 1161.047 576.975, 1164.531 570.900, 1166.732 566.500 C 1168.933 562.100, 1172.338 554.450, 1174.300 549.500 C 1176.261 544.550, 1200.584 478.400, 1228.351 402.500 C 1256.118 326.600, 1279.149 263.707, 1279.530 262.737 C 1280.186 261.070, 1278.324 260.988, 1245.498 261.237 L 1210.772 261.500 1181.944 349.359 C 1166.088 397.681, 1152.938 437.395, 1152.722 437.612 C 1152.505 437.828, 1138.920 398.179, 1122.532 349.503 L 1092.736 261 1057.368 261 C 1037.916 261, 1022 261.202, 1022 261.450 M 2477.500 287.138 C 2473.650 287.625, 2466.220 289.348, 2460.990 290.967 C 2455.197 292.759, 2448.162 295.923, 2442.990 299.062 C 2438.320 301.896, 2432.475 306.072, 2430 308.342 C 2427.525 310.611, 2423.389 314.932, 2420.808 317.945 C 2418.227 320.957, 2414.299 326.597, 2412.078 330.478 C 2409.858 334.359, 2406.914 340.759, 2405.537 344.700 C 2404.160 348.642, 2402.351 355.780, 2401.517 360.564 C 2400.683 365.348, 2400 373.445, 2400 378.559 C 2400 383.672, 2400.477 391.375, 2401.059 395.678 C 2401.642 399.980, 2403.609 407.893, 2405.430 413.262 C 2407.251 418.632, 2410.936 426.678, 2413.620 431.143 C 2416.304 435.608, 2421.652 442.465, 2425.505 446.381 C 2429.357 450.296, 2435.882 455.729, 2440.005 458.453 C 2444.127 461.177, 2450.003 464.424, 2453.061 465.667 C 2456.120 466.910, 2461.295 468.629, 2464.561 469.487 C 2467.828 470.346, 2474.790 471.494, 2480.034 472.039 C 2486.369 472.697, 2492.745 472.693, 2499.034 472.027 C 2504.240 471.475, 2510.300 470.531, 2512.500 469.930 C 2514.700 469.329, 2518.426 468.200, 2520.780 467.420 C 2523.134 466.641, 2527.328 464.854, 2530.102 463.449 C 2532.875 462.043, 2537.474 459.267, 2540.322 457.279 C 2543.170 455.290, 2547.902 451.377, 2550.838 448.582 C 2553.774 445.787, 2558.172 440.728, 2560.611 437.340 C 2563.051 433.952, 2566.652 427.706, 2568.614 423.459 C 2570.576 419.212, 2573.287 411.409, 2574.638 406.119 C 2576.161 400.153, 2577.320 392.111, 2577.690 384.941 C 2578.050 377.959, 2577.813 370.041, 2577.092 364.941 C 2576.436 360.299, 2574.992 353.125, 2573.885 349 C 2572.777 344.875, 2569.782 337.537, 2567.229 332.694 C 2564.675 327.850, 2560.203 320.998, 2557.289 317.466 C 2554.376 313.934, 2549.181 308.774, 2545.746 306.001 C 2542.311 303.228, 2535 298.769, 2529.500 296.092 C 2524 293.416, 2516.800 290.514, 2513.500 289.642 C 2510.200 288.771, 2503.450 287.599, 2498.500 287.037 C 2493.550 286.476, 2488.375 286.070, 2487 286.135 C 2485.625 286.200, 2481.350 286.651, 2477.500 287.138 M 2153.113 289.484 C 2149.600 290.280, 2144.425 291.684, 2141.613 292.604 C 2138.801 293.525, 2133.800 295.627, 2130.500 297.276 C 2127.200 298.925, 2122.025 301.959, 2119 304.020 C 2115.975 306.080, 2110.774 310.631, 2107.443 314.133 C 2104.111 317.635, 2100.008 322.525, 2098.326 325 C 2096.643 327.475, 2093.919 332.200, 2092.273 335.500 C 2090.627 338.800, 2088.338 344.425, 2087.187 348 C 2086.036 351.575, 2084.572 357.425, 2083.934 361 C 2083.297 364.575, 2082.768 373.350, 2082.760 380.500 C 2082.751 387.650, 2083.273 396.425, 2083.919 400 C 2084.566 403.575, 2086.036 409.425, 2087.187 413 C 2088.338 416.575, 2090.577 422.094, 2092.162 425.265 C 2093.747 428.435, 2096.631 433.511, 2098.571 436.543 C 2100.511 439.576, 2105.405 445.307, 2109.448 449.279 C 2113.490 453.250, 2119.881 458.339, 2123.649 460.586 C 2127.417 462.834, 2133.495 465.869, 2137.155 467.330 C 2140.815 468.792, 2147.115 470.731, 2151.155 471.639 C 2156.052 472.740, 2163 473.282, 2172 473.266 C 2183.170 473.245, 2187.152 472.807, 2195.070 470.724 C 2200.333 469.339, 2207.758 466.610, 2211.570 464.659 C 2215.381 462.708, 2220.441 459.796, 2222.814 458.189 C 2225.186 456.582, 2229.375 453.113, 2232.122 450.481 C 2234.869 447.848, 2238.593 443.851, 2240.397 441.597 C 2242.201 439.344, 2245.355 434.692, 2247.405 431.261 C 2249.455 427.829, 2252.452 421.404, 2254.066 416.982 C 2255.679 412.561, 2257.675 405.072, 2258.500 400.341 C 2259.325 395.609, 2260 386.355, 2260 379.776 C 2260 371.640, 2259.342 364.584, 2257.942 357.717 C 2256.810 352.163, 2254.577 344.547, 2252.979 340.792 C 2251.381 337.037, 2248.109 330.935, 2245.707 327.232 C 2243.305 323.530, 2239.031 317.980, 2236.208 314.901 C 2233.385 311.821, 2227.698 306.967, 2223.570 304.114 C 2219.443 301.260, 2213.238 297.603, 2209.783 295.986 C 2206.327 294.369, 2199.900 292.085, 2195.500 290.910 C 2189.681 289.357, 2183.683 288.674, 2173.500 288.406 C 2163.700 288.149, 2157.584 288.472, 2153.113 289.484 M 644.595 394.747 C 640.247 395.983, 628.547 398.799, 618.595 401.005 C 608.643 403.211, 596.065 406.424, 590.646 408.147 C 584.874 409.981, 579.086 412.579, 576.674 414.418 C 574.410 416.145, 571.116 419.448, 569.354 421.758 C 567.429 424.282, 565.697 428.140, 565.015 431.428 C 564.211 435.299, 564.177 438.507, 564.898 442.407 C 565.458 445.437, 566.870 449.786, 568.036 452.071 C 569.202 454.357, 572.146 458.160, 574.578 460.524 C 577.010 462.888, 580.982 465.781, 583.404 466.954 C 585.827 468.126, 590.589 469.603, 593.986 470.235 C 598.660 471.104, 602.151 471.099, 608.332 470.214 C 614.434 469.341, 618.807 467.906, 625.621 464.543 C 631.837 461.475, 636.465 458.317, 640.157 454.626 C 643.136 451.647, 646.766 446.773, 648.224 443.795 C 649.682 440.817, 651.372 435.483, 651.980 431.940 C 652.587 428.398, 652.953 418.075, 652.792 409 L 652.500 392.500 644.595 394.747" stroke="none" fill="#fbfbfb" fill-rule="evenodd"/></svg>